# xmcd
#
# Track frame offsets:
#	150
#	17355
#	57038
#	80309
#	107432
#	124841
#	135651
#	150603
#	167540
#	189222
#	205755
#	231483
#	244966
#	263200
#
# Disc length: 3773 seconds
#
# Revision: 2
# Processed by: cddbd v1.5.1PL0 Copyright (c) Steve Scherf et al.
# Submitted via: EasyCDDAExtractor 5.0.6
#
DISCID=ab0ebb0e
DTITLE=Various Artist - Sprout - The Surf Movie Soundtrack
DYEAR=2005
DGENRE=Indie
TTITLE0=Sam Prekop - Practice Twice
TTITLE1=Oliver Nelson - Stolen Moments
TTITLE2=Hope Sandoval and The Warm Inventions - On The Low
TTITLE3=HIM - Of The Periphery
TTITLE4=Ray Barbee - Find Enjoyment
TTITLE5=The Shins - When I Goose Step
TTITLE6=Sprout House Band - Butternut
TTITLE7=Tommy Guerrero - By Fist And Fury
TTITLE8=Tortoise - Salt The Skies
TTITLE9=Calexico - Banderilla
TTITLE10=Superwolf - Demon Lover
TTITLE11=Sprout House Band - Spanish Flowers
TTITLE12=Ray Barbee, Tommy Guerrero, Matt Rodriguez, Doug Scharin - Rained Out
TTITLE13=Mojave 3 - Got My Sunshine
EXTD=YEAR: 2005
EXTT0=
EXTT1=
EXTT2=
EXTT3=
EXTT4=
EXTT5=
EXTT6=
EXTT7=
EXTT8=
EXTT9=
EXTT10=
EXTT11=
EXTT12=
EXTT13=
PLAYORDER=
